<svg xmlns="http://www.w3.org/2000/svg" xmlns:xlink="http://www.w3.org/1999/xlink" viewBox="0 0 500 500"><defs><clipPath id="freepik--clip-path--inject-1--inject-6"><polygon points="191.2 232.25 182.65 239.73 174.28 232.25 174.28 212.31 191.2 212.31 191.2 232.25" style="fill:#fff;stroke:#2e353a;stroke-linecap:round;stroke-linejoin:round"></polygon></clipPath></defs><!--Vault--><g id="freepik--background-simple--inject-1--inject-6"><path d="M386.72,127.41c-21.44-18.8-43-38.74-66.9-53.88C281.4,49.19,227.53,40.09,192.45,75.3c-10.8,10.85-13,25.82-17.3,39.85-4.7,15.48-13.46,26.92-27.46,35.3-13,7.78-27.68,12.14-41.67,17.93-17.93,7.42-34.48,18.26-43,36.33-10.11,21.53-5.45,40.56,8.28,58.92C84.64,281.41,105,298,101.76,322.41c-1.36,10.43-5.57,20.23-8.9,30.2S87,373.27,89.24,383.55c7.19,33.6,59.15,42.32,86.3,31.17,47-19.3,93.3,7,140.66,8.07,33.29.76,76.49-8.74,86.61-45.52,8.71-31.63-22.53-66.55,1.9-94.15,19.07-21.54,37.52-49.16,35.4-79.27-2.07-29.23-24.37-51.41-45.34-69.44Q390.75,131,386.72,127.41Z" style="fill:#92E3A9"></path><path d="M386.72,127.41c-21.44-18.8-43-38.74-66.9-53.88C281.4,49.19,227.53,40.09,192.45,75.3c-10.8,10.85-13,25.82-17.3,39.85-4.7,15.48-13.46,26.92-27.46,35.3-13,7.78-27.68,12.14-41.67,17.93-17.93,7.42-34.48,18.26-43,36.33-10.11,21.53-5.45,40.56,8.28,58.92C84.64,281.41,105,298,101.76,322.41c-1.36,10.43-5.57,20.23-8.9,30.2S87,373.27,89.24,383.55c7.19,33.6,59.15,42.32,86.3,31.17,47-19.3,93.3,7,140.66,8.07,33.29.76,76.49-8.74,86.61-45.52,8.71-31.63-22.53-66.55,1.9-94.15,19.07-21.54,37.52-49.16,35.4-79.27-2.07-29.23-24.37-51.41-45.34-69.44Q390.75,131,386.72,127.41Z" style="fill:#fff;opacity:0.7000000000000001"></path></g><g id="freepik--Shadow--inject-1--inject-6"><ellipse cx="178.26" cy="436.87" rx="46.11" ry="9.22" style="fill:#92E3A9"></ellipse><ellipse cx="178.26" cy="436.87" rx="46.11" ry="9.22" style="fill:#fff;opacity:0.5"></ellipse></g><g id="freepik--Vault--inject-1--inject-6"><circle cx="256.37" cy="249.32" r="139.85" transform="translate(-101.21 254.31) rotate(-45)" style="fill:#92E3A9;stroke:#2e353a;stroke-linecap:round;stroke-miterlimit:10"></circle><circle cx="256.37" cy="249.32" r="127.7" style="fill:#2e353a;stroke:#2e353a;stroke-linecap:round;stroke-miterlimit:10"></circle><circle cx="256.37" cy="249.32" r="118.16" style="fill:#fff;stroke:#2e353a;stroke-linecap:round;stroke-miterlimit:10"></circle><path d="M256.37,142.49A106.84,106.84,0,1,0,363.21,249.32,106.83,106.83,0,0,0,256.37,142.49Zm0,205a98.21,98.21,0,1,1,98.21-98.21A98.21,98.21,0,0,1,256.37,347.53Z" style="fill:#92E3A9;stroke:#2e353a;stroke-linecap:round;stroke-miterlimit:10"></path><path d="M256.37,190.51a58.82,58.82,0,1,0,58.82,58.81A58.81,58.81,0,0,0,256.37,190.51Zm0,112.87a54.06,54.06,0,1,1,54.06-54.06A54.06,54.06,0,0,1,256.37,303.38Z" style="fill:#92E3A9;stroke:#2e353a;stroke-linecap:round;stroke-miterlimit:10"></path><path d="M256.37,215.32a34,34,0,1,0,34,34A34,34,0,0,0,256.37,215.32Zm2.61,5.33a28.66,28.66,0,0,1,16.21,6.88L259,243.74Zm-5.21,23.09-16.21-16.21a28.63,28.63,0,0,1,16.21-6.88Zm-3.68,3.68H227.64a28.65,28.65,0,0,1,6.3-16.15Zm0,5.2-15.51,15.52a28.63,28.63,0,0,1-6.81-15.52Zm3.68,3.69V278a28.62,28.62,0,0,1-15.45-6.24Zm5.21,0,15.45,15.45A28.65,28.65,0,0,1,259,278Zm3.68-3.69H285a28.7,28.7,0,0,1-6.81,15.52Zm0-5.2,16.14-16.15a28.65,28.65,0,0,1,6.3,16.15Z" style="fill:#92E3A9;stroke:#2e353a;stroke-linecap:round;stroke-miterlimit:10"></path><circle cx="256.37" cy="249.32" r="19.26" style="fill:#fff;stroke:#2e353a;stroke-linecap:round;stroke-miterlimit:10"></circle><path d="M395.53,263.22c-142-44.15-239.41,23.76-265.8,45.48a139.87,139.87,0,0,0,265.8-45.48Z" style="fill:#92E3A9;mix-blend-mode:multiply"></path><rect x="374.06" y="132.9" width="17.35" height="29.5" rx="7.4" style="fill:#2e353a;stroke:#2e353a;stroke-linecap:round;stroke-miterlimit:10"></rect><rect x="374.06" y="340.25" width="17.35" height="29.5" rx="7.4" style="fill:#2e353a;stroke:#2e353a;stroke-linecap:round;stroke-miterlimit:10"></rect><rect x="247.7" y="132.9" width="17.35" height="29.5" rx="7.4" style="fill:#2e353a;stroke:#2e353a;stroke-linecap:round;stroke-miterlimit:10"></rect><rect x="247.7" y="340.25" width="17.35" height="29.5" rx="7.4" style="fill:#2e353a;stroke:#2e353a;stroke-linecap:round;stroke-miterlimit:10"></rect><circle cx="256.37" cy="99.63" r="2.82" style="fill:#fff;stroke:#2e353a;stroke-linecap:round;stroke-miterlimit:10"></circle><path d="M207.83,107.69a2.82,2.82,0,1,0-1.69,3.62A2.82,2.82,0,0,0,207.83,107.69Z" style="fill:#fff;stroke:#2e353a;stroke-linecap:round;stroke-miterlimit:10"></path><path d="M162.31,132.84a2.82,2.82,0,1,0-.34,4A2.81,2.81,0,0,0,162.31,132.84Z" style="fill:#fff;stroke:#2e353a;stroke-linecap:round;stroke-miterlimit:10"></path><path d="M128.15,172a2.82,2.82,0,1,0,1,3.86A2.83,2.83,0,0,0,128.15,172Z" style="fill:#fff;stroke:#2e353a;stroke-linecap:round;stroke-miterlimit:10"></path><path d="M109.44,220.55a2.82,2.82,0,1,0,2.29,3.27A2.82,2.82,0,0,0,109.44,220.55Z" style="fill:#fff;stroke:#2e353a;stroke-linecap:round;stroke-miterlimit:10"></path><path d="M108.46,272.54a2.82,2.82,0,1,0,3.27,2.29A2.82,2.82,0,0,0,108.46,272.54Z" style="fill:#fff;stroke:#2e353a;stroke-linecap:round;stroke-miterlimit:10"></path><path d="M125.32,321.73a2.82,2.82,0,1,0,3.86,1A2.81,2.81,0,0,0,125.32,321.73Z" style="fill:#fff;stroke:#2e353a;stroke-linecap:round;stroke-miterlimit:10"></path><path d="M158,362.18a2.82,2.82,0,1,0,4-.35A2.82,2.82,0,0,0,158,362.18Z" style="fill:#fff;stroke:#2e353a;stroke-linecap:round;stroke-miterlimit:10"></path><path d="M202.52,389a2.82,2.82,0,1,0,3.62-1.69A2.81,2.81,0,0,0,202.52,389Z" style="fill:#fff;stroke:#2e353a;stroke-linecap:round;stroke-miterlimit:10"></path><path d="M253.55,399a2.83,2.83,0,1,0,2.82-2.82A2.82,2.82,0,0,0,253.55,399Z" style="fill:#fff;stroke:#2e353a;stroke-linecap:round;stroke-miterlimit:10"></path><path d="M304.92,391a2.82,2.82,0,1,0,1.69-3.62A2.82,2.82,0,0,0,304.92,391Z" style="fill:#fff;stroke:#2e353a;stroke-linecap:round;stroke-miterlimit:10"></path><path d="M350.43,365.81a2.83,2.83,0,1,0,.35-4A2.82,2.82,0,0,0,350.43,365.81Z" style="fill:#fff;stroke:#2e353a;stroke-linecap:round;stroke-miterlimit:10"></path><path d="M384.6,326.62a2.82,2.82,0,1,0-1-3.86A2.83,2.83,0,0,0,384.6,326.62Z" style="fill:#fff;stroke:#2e353a;stroke-linecap:round;stroke-miterlimit:10"></path><path d="M403.3,278.1a2.82,2.82,0,1,0-2.29-3.27A2.82,2.82,0,0,0,403.3,278.1Z" style="fill:#fff;stroke:#2e353a;stroke-linecap:round;stroke-miterlimit:10"></path><path d="M404.28,226.11a2.82,2.82,0,1,0-3.27-2.29A2.82,2.82,0,0,0,404.28,226.11Z" style="fill:#fff;stroke:#2e353a;stroke-linecap:round;stroke-miterlimit:10"></path><path d="M387.42,176.92a2.82,2.82,0,1,0-3.85-1A2.82,2.82,0,0,0,387.42,176.92Z" style="fill:#fff;stroke:#2e353a;stroke-linecap:round;stroke-miterlimit:10"></path><path d="M354.76,136.47a2.83,2.83,0,1,0-4,.34A2.83,2.83,0,0,0,354.76,136.47Z" style="fill:#fff;stroke:#2e353a;stroke-linecap:round;stroke-miterlimit:10"></path><path d="M310.22,109.62a2.82,2.82,0,1,0-3.61,1.69A2.81,2.81,0,0,0,310.22,109.62Z" style="fill:#fff;stroke:#2e353a;stroke-linecap:round;stroke-miterlimit:10"></path><path d="M393.15,175.41V151.12H238.59v38.5h45a15.18,15.18,0,0,1,15.18,15.18v89.71a15.18,15.18,0,0,1-15.18,15.17h-45v41H393.15V326.37h-38.8a12.54,12.54,0,0,1-12.53-12.54V188a12.54,12.54,0,0,1,12.53-12.54Z" style="fill:#fff;stroke:#2e353a;stroke-linecap:round;stroke-miterlimit:10"></path><path d="M306.33,254.68v39.83a22.8,22.8,0,0,1-22.77,22.77H246.18v25.78H385.56V334H354.35a20.15,20.15,0,0,1-20.13-20.13V256.59A216.63,216.63,0,0,0,306.33,254.68Z" style="fill:#92E3A9"></path><path d="M246.18,173.47c18.61-5.2,44.26-10.67,78.53-14.75H246.18Z" style="fill:#92E3A9"></path><path d="M337.67,176.69c-15.42,3-29.6,6.19-41.53,9.14a22.79,22.79,0,0,1,10.19,19v10.85c9.64-4.49,19-8.5,27.89-12.06V188A20.08,20.08,0,0,1,337.67,176.69Z" style="fill:#92E3A9"></path><line x1="255.51" y1="72.82" x2="255.51" y2="66.62" style="fill:none;stroke:#2e353a;stroke-linecap:round;stroke-miterlimit:10"></line><line x1="255.51" y1="91.69" x2="255.51" y2="76.5" style="fill:none;stroke:#2e353a;stroke-linecap:round;stroke-miterlimit:10"></line><line x1="255.51" y1="422.58" x2="255.51" y2="406.31" style="fill:none;stroke:#2e353a;stroke-linecap:round;stroke-miterlimit:10"></line><line x1="400.89" y1="250.08" x2="425.84" y2="250.08" style="fill:none;stroke:#2e353a;stroke-linecap:round;stroke-miterlimit:10"></line><line x1="79.64" y1="250.08" x2="111.51" y2="250.08" style="fill:none;stroke:#2e353a;stroke-linecap:round;stroke-miterlimit:10"></line><line x1="72.17" y1="250.08" x2="75.02" y2="250.08" style="fill:none;stroke:#2e353a;stroke-linecap:round;stroke-miterlimit:10"></line><line x1="431.27" y1="250.08" x2="437.09" y2="250.08" style="fill:none;stroke:#2e353a;stroke-linecap:round;stroke-miterlimit:10"></line></g></svg>